<svg width="688" height="463" viewBox="0 0 688 463" fill="none" xmlns="http://www.w3.org/2000/svg">
<path d="M134 179C129.375 170.12 123.531 170.011 114.444 172.556C102.836 175.806 85.1925 183.221 80.5556 195.222C75.2099 209.058 74.0894 231.812 81.0556 245.111C88.5758 259.468 96.5655 267.405 113.222 271.222C119.267 272.607 123.752 274 130.056 274C136.326 274 136.566 273.04 141 269.556C147.192 264.69 149.508 256.903 152.778 250C156.898 241.301 157 228.603 157 219C157 211.776 157.505 204.522 155.944 197.5C153.834 188.002 143.831 203.299 142.778 205.444C133.416 224.528 140.843 241.408 149.5 259.389C151.193 262.905 160.02 277.98 166 272C171.26 266.74 176 254.988 176 247.5C176 245.45 176.01 242.478 174 241.222C172.034 239.993 177.793 241.032 179.222 241C202.679 240.479 209.918 214.687 212.444 195.556C212.954 191.699 213 187.879 213 184C213 182.282 213 177.001 213 182.111C213 190.93 213.276 199.8 212.889 208.611C212.3 222.001 209.301 235.114 209 248.556C208.847 255.409 209.56 265.294 207.444 271.944C205.832 277.013 205.368 271.139 205.222 269C204.648 260.544 206.984 253.609 210.5 246.056C214.11 238.3 218.658 232.742 226.778 230.222C231.295 228.82 231.258 231.615 231 235.222C230.601 240.803 222.293 242 218 242C216.321 242 214.447 241.772 212.778 242C210.915 242.254 219.516 250.515 220.444 251.5C223.798 255.057 229.052 264.948 234.222 259.778C239.176 254.824 243.187 249.569 249 245.5C253.44 242.392 257.187 238.813 261 235C263.59 232.41 267.716 228.732 261.5 233.056C254.619 237.842 250 246.577 250 254.944C250 256.899 248.709 266.101 251.222 266.778C256.046 268.077 262.003 253.766 263.444 251C266.596 244.952 270.984 239.929 273.5 233.5C274.258 231.563 275 225.365 275 227.444C275 233.185 275 238.926 275 244.667C275 247.002 273.241 263.596 279.222 260.333C287.2 255.982 293.094 248.22 297.778 240.556C301.132 235.067 303 227.966 303 221.556C303 220.199 301.866 218.907 300.556 220.333C297.408 223.759 297 228.989 297 233.389C297 239.602 297.561 239.095 304 239C314.957 238.839 318.493 226.162 321.778 217.444C322.551 215.392 323.057 211.536 323 216.111C322.887 225.115 321.815 234.074 320 242.889C318.712 249.143 318 254.961 318 261.333C318 263.35 318.267 264.916 317 266.5C313.437 270.953 313.454 279.532 311.222 284.889C310.867 285.743 310 289.598 310 287.222C310 281.47 310.306 277.01 313 271.778C321.333 255.592 327.609 239.739 339 225.5C340.917 223.104 342 234.596 342 235.556C342 247.545 329.629 251.884 320 256C303.451 263.073 284.883 267.41 267 269C245.169 270.94 223.118 274.763 201.444 278.056C180.868 281.181 159.575 283.052 139.222 287.222C130.856 288.937 121.591 291 113 291" stroke="black" stroke-linecap="round" stroke-linejoin="round"/>
</svg>
